PathFileType	4	(X/Y/Z)	26_2_35_p1_0-1205.trc
DataRate	CameraRate	NumFrames	NumMarkers	Units	OrigDataRate	OrigDataStartFrame	OrigNumFrames
52.0	52.0	5	27	m	52.0	452	1206
Frame#	Time	RHip			RKnee			RAnkle			RBigToe			RSmallToe			RHeel			LHip			LKnee			LAnkle			LBigToe			LSmallToe			LHeel			Neck			Head			Nose			RShoulder			RElbow			RWrist			RThumb			RIndex			RPinky			LShoulder			LElbow			LWrist			LThumb			LIndex			LPinky			
		X1	Y1	Z1	X2	Y2	Z2	X3	Y3	Z3	X4	Y4	Z4	X5	Y5	Z5	X6	Y6	Z6	X7	Y7	Z7	X8	Y8	Z8	X9	Y9	Z9	X10	Y10	Z10	X11	Y11	Z11	X12	Y12	Z12	X13	Y13	Z13	X14	Y14	Z14	X15	Y15	Z15	X16	Y16	Z16	X17	Y17	Z17	X18	Y18	Z18	X19	Y19	Z19	X20	Y20	Z20	X21	Y21	Z21	X22	Y22	Z22	X23	Y23	Z23	X24	Y24	Z24	X25	Y25	Z25	X26	Y26	Z26	X27	Y27	Z27	
452	8.692307692307692	0.3020389907261469	0.7882240517160597	0.897170559731759	0.2796492692348283	0.9813766603308717	1.2682500398917078	0.2438223116369026	1.263593824904268	1.6487818280038182	0.23537992221037285	0.992066015423232	1.6887418736697064	0.2703500027774907	1.0630272038848434	1.7036089382662043	0.24317903918306116	1.3135181122527886	1.680886820088146	0.07343771113136822	0.7998579786855888	0.8881975932339419	0.0879902810864783	0.9968566078171077	1.2469961576658746	0.1262818989371381	1.2760690434256838	1.6536053884562236	0.10223990917485799	1.0070916061291426	1.6861352585818548	0.06333352056514624	1.0799556840649571	1.6767038264844398	0.12993944448764475	1.3451617593139247	1.6939641464268929	0.2092262159406462	0.5541314308997818	0.31020745032182384	0.22739425033461047	0.3943575643927806	0.11450963865747397	0.22073659075012805	0.41125901498275713	0.24308388840349426	0.38927642974703547	0.61513047158807	0.4110172398898438	0.41594030584687297	0.726599306345971	0.666725743847887	0.422807445764147	0.7765961774832257	0.901063221460252	0.3729655134433648	0.781536134684851	1.0347748533742482	0.39655804890856927	0.8226673486532132	1.05201045193854	0.41510351486520897	0.8551659243368309	1.0317599212155102	0.05458983383740912	0.6031103371699216	0.3753690517158633	-0.023610827586787394	0.7042552670550425	0.6207444557957535	-0.040596712459165775	0.7900372811069775	0.8591500377990148	-0.028528530091841916	0.8429713855237446	0.9664094134591579	-0.03701888553167046	0.8550300388860975	0.9871155662227863	-0.0465907591918932	0.8584676757865486	0.9660997461817284
453	8.711538461538462	0.30199482797808286	0.7884830219762535	0.8972196091565756	0.27952308868890685	0.9815249264306611	1.264296080651762	0.24381587769558638	1.263832050199392	1.6488272321248922	0.23577736060323784	0.9923957369234944	1.6887457265404366	0.275476065353614	1.066222683836901	1.7042610112121828	0.24326939330571667	1.313324192330002	1.6805497550556148	0.07342118540971596	0.8001106438275195	0.8881941380223729	0.08701226216474114	0.9986099049938912	1.2510093878551662	0.12629925488233484	1.2761997609503433	1.6536406623549855	0.10733023057898816	1.0091273326824364	1.6863075471146605	0.056016463879235236	1.0816544841024511	1.676952699536463	0.13344734551599646	1.3586427264457057	1.6961978770892365	0.2092257265410141	0.554211711434006	0.310196654456823	0.22736371461441135	0.3942765526765309	0.11461483200869699	0.22065943848242128	0.4113973825207725	0.24301332771842507	0.38900945629457057	0.616389817328805	0.41432603024966924	0.4159788789165016	0.726575520316513	0.6667319349701022	0.42283102205199397	0.7765334063962602	0.9010046273744562	0.3735510978479164	0.7845061192590158	1.0380357946859082	0.3965232076173122	0.822876449510751	1.0519471949677128	0.4150702554892766	0.8548624190916592	1.0316277586021514	0.057914475568726045	0.6151343597011709	0.3722543845270389	-0.023676715269118485	0.704308048277553	0.6207361726457584	-0.048271738125806575	0.7931636220213482	0.8625816356680251	-0.02856340234085341	0.842927832224158	0.966555734022906	-0.03693397815342855	0.8551081067277942	0.9911382349156028	-0.0466535432210734	0.8585586974795937	0.9662211249316993
454	8.73076923076923	0.30208707465117407	0.7882898215127081	0.8971759612059019	0.27950256272671353	0.9813621674034823	1.26426199881051	0.24382057856992076	1.2637146057410737	1.6488116700259274	0.2347216456999295	0.9886700335372935	1.684849610492199	0.2743790339937718	1.062602262971785	1.7000387319482704	0.24320608125178395	1.3133494134540624	1.6807311129045241	0.07408944840604238	0.7983508482888745	0.8850337433377604	0.08790855236333063	0.9965381957670948	1.2470751286708974	0.12642916555352166	1.2761775969500693	1.6534905353622456	0.10730296963631385	1.0088930999131556	1.6862984625696402	0.06017897195587642	1.0638310184170958	1.6741157719110877	0.12993863179539075	1.3448076351701268	1.6938363519172055	0.20921726522530068	0.5537896428435451	0.31033809072897944	0.22732353014230067	0.3939107782305433	0.11462431352837894	0.21692410002061863	0.4012062564114171	0.2464055302690216	0.3892537648263472	0.6151092914836583	0.410971414522352	0.41601056869109965	0.7264048165568917	0.6667493030133324	0.4233267438683567	0.774984584593491	0.8976050832843719	0.3734770895023143	0.7843377201508775	1.0379353123835071	0.39654598676704533	0.823116448740688	1.051873247132591	0.41500859933056056	0.8548844847041291	1.0315398148921269	0.05792427984934835	0.6151600242817963	0.37219077652122534	-0.023652476041044736	0.7039069589737351	0.6171662114931847	-0.04332547222931381	0.7771778300560717	0.8603214635383356	-0.03140596696460995	0.8299411699733094	0.9672190037498213	-0.03698391503312508	0.8549192071793595	0.9870421285506821	-0.04699044225343323	0.8552537256475833	0.9630355335157449
455	8.75	0.3052562161449296	0.7733157432788383	0.8986198923227423	0.27868696034534474	0.9833806735764318	1.2685859685399496	0.24380641927741792	1.2636053292637754	1.6488193448228998	0.23478017208127025	0.9890577888721767	1.684985126278721	0.2744202685034182	1.0627843694417285	1.7000784569819165	0.24315758959158357	1.3134713432736402	1.6810008756596047	0.07357550711013353	0.7998345020075108	0.8883481796524861	0.08794527283239018	0.9966339030456794	1.2470200169513417	0.1263317956195251	1.2762864947599808	1.6536147258946547	0.1073561251430204	1.0087674810259462	1.6863232927995346	0.06334460610398626	1.079648472838253	1.6766545507946529	0.12996689358458202	1.3450515990727179	1.693911194059993	0.20925011066411767	0.553828929209821	0.3102747350382786	0.2231878387531194	0.3909528359622525	0.11218219619997813	0.21269619115358437	0.39959757490810727	0.2469095013884698	0.3890001773982755	0.6163598404994397	0.4142995531999265	0.4159811583675214	0.7262961087255916	0.6668024633969268	0.42288170037735345	0.7764512205735629	0.901003369596718	0.3779650660351438	0.7968584874285464	1.0376245270364497	0.4011174766804243	0.8360490245506793	1.051520526056667	0.41495390540846244	0.8547371716163791	1.0315639076641578	0.05793210086934937	0.6152961071980709	0.37220213646631706	-0.02026893147859193	0.7173375910924003	0.6184304524521411	-0.04122586521596958	0.7916735843953766	0.8626886554581409	-0.03137236457343198	0.8298830770125795	0.9673628051702414	-0.03703331357852591	0.8547134683268363	0.9872871213658527	-0.047012990143985425	0.8549995092227474	0.9629298907807089
456	8.76923076923077	0.30091499039998704	0.7727159796057522	0.8984510545065161	0.278693282784953	0.9833038667655619	1.2686668630639228	0.24364903434265953	1.2638103311397002	1.6489208169111786	0.23496892591819593	0.9924859644663274	1.6888493627406442	0.26880561714733614	1.0604364952566225	1.6954467246691045	0.2426038315796226	1.3140719532194867	1.6815058041674373	0.07334500823968418	0.7997772190959664	0.8844326426749851	0.08707607395671882	0.9987285055727166	1.250947990574665	0.12219325400416328	1.2597477826635552	1.6514833384974374	0.10742645453265746	1.00972368095081	1.6864081389899037	0.05917175759802822	1.09830780457021	1.6798425393713559	0.12929047706313784	1.344368265136357	1.6939700946549512	0.20917069751174291	0.5537150733734216	0.31043623494006595	0.22701891535360044	0.3926820093828353	0.11503083442221423	0.2126402499260925	0.39951004295142645	0.2471206959941115	0.3890214592380254	0.6161066302818419	0.4144221239406723	0.4160534000188627	0.7259268429030054	0.6668951809067168	0.42295262346931967	0.7760749790416391	0.9010250838642705	0.37686197590679504	0.7937876457408765	1.0343519646817252	0.4011514321217043	0.8360513808796315	1.0514930369934719	0.41500999742501005	0.8538024740774901	1.0315010388882753	0.05793637138641357	0.6151984357956182	0.37210929667851084	-0.020195992104555437	0.717387842150552	0.6184614439582862	-0.0416275251866598	0.7884499429379308	0.8593758237330719	-0.022712678253315213	0.8119447881962014	0.9682073864785911	-0.036576466175582065	0.853324895299815	0.9916497943289689	-0.04833458725570596	0.8525255818463179	0.9633176890266174
